<?xml version="1.0" standalone="no"?><!DOCTYPE svg PUBLIC "-//W3C//DTD SVG 1.1//EN" "http://www.w3.org/Graphics/SVG/1.1/DTD/svg11.dtd"><svg t="1574489931102" class="icon" viewBox="0 0 1024 1024" version="1.1" xmlns="http://www.w3.org/2000/svg" p-id="5006" xmlns:xlink="http://www.w3.org/1999/xlink" width="200" height="200"><defs><style type="text/css"></style></defs><path d="M840.96 523.52a32 32 0 0 0-32 32v345.6H238.72v-633.6a32 32 0 0 0-64 0v665.6a32 32 0 0 0 32 32h634.24a32 32 0 0 0 32-32v-377.6a32 32 0 0 0-32-32z" fill="#e6e6e6" p-id="5007"></path><path d="M311.68 286.72h424.32A32 32 0 0 0 768 256v-32.64A96 96 0 0 0 672 128h-53.12a100.48 100.48 0 0 0-192 0h-51.2a96 96 0 0 0-96 96V256a32 32 0 0 0 32 30.72z m64-94.72h80a32 32 0 0 0 32-32 36.48 36.48 0 0 1 72.32 0 32 32 0 0 0 32 32h80a32 32 0 0 1 32 31.36H343.68a32 32 0 0 1 32-31.36zM880.64 346.88a32 32 0 0 0-45.44 0L543.36 640 421.12 516.48a32 32 0 0 0-45.44 45.44L520.96 704a32 32 0 0 0 45.44 0l314.88-314.88a32 32 0 0 0-0.64-42.24z" fill="#e6e6e6" p-id="5008"></path></svg>